{
  "accessors": [
    {
      "bufferView": 2,
      "componentType": 5126,
      "count": 62,
      "max": [
        -1.2456899881362915,
        0.37376099824905396,
        0.33915498852729797
      ],
      "min": [
        -1.7828500270843506,
        -0.17086400091648102,
        -0.13166399300098419
      ],
      "type": "VEC3"
    },
    {
      "bufferView": 2,
      "byteOffset": 744,
      "componentType": 5126,
      "count": 62,
      "max": [
        0.98369914293289185,
        0.98359990119934082,
        0.99565023183822632
      ],
      "min": [
        -0.60541629791259766,
        -0.52699708938598633,
        -0.36649090051651001
      ],
      "type": "VEC3"
    },
    {
      "bufferView": 3,
      "componentType": 5126,
      "count": 62,
      "max": [
        0.98814600706100464,
        0.41059601306915283,
        0.60798400640487671,
        1
      ],
      "min": [
        -0.36376398801803589,
        -0.38838601112365723,
        -0.986316978931427,
        1
      ],
      "type": "VEC4"
    },
    {
      "bufferView": 1,
      "componentType": 5126,
      "count": 62,
      "max": [
        0.99570000171661377,
        0.42419999837875366
      ],
      "min": [
        0.49639999866485596,
        0.0060000000521540642
      ],
      "type": "VEC2"
    },
    {
      "bufferView": 0,
      "componentType": 5125,
      "count": 312,
      "max": [
        61
      ],
      "min": [
        0
      ],
      "type": "SCALAR"
    },
    {
      "bufferView": 2,
      "byteOffset": 1488,
      "componentType": 5126,
      "count": 1229,
      "max": [
        -1.1869800090789795,
        0.68003302812576294,
        0.3935759961605072
      ],
      "min": [
        -2.1849100589752197,
        -0.71573799848556519,
        -0.61707699298858643
      ],
      "type": "VEC3"
    },
    {
      "bufferView": 2,
      "byteOffset": 16236,
      "componentType": 5126,
      "count": 1229,
      "max": [
        0.99813735485076904,
        0.99883610010147095,
        0.99752748012542725
      ],
      "min": [
        -0.99699866771697998,
        -0.99778598546981812,
        -0.99715912342071533
      ],
      "type": "VEC3"
    },
    {
      "bufferView": 3,
      "byteOffset": 992,
      "componentType": 5126,
      "count": 1229,
      "max": [
        0.99950999021530151,
        0.99890798330307007,
        0.98358601331710815,
        1
      ],
      "min": [
        -0.99309402704238892,
        -0.98764097690582275,
        -0.99951797723770142,
        -1
      ],
      "type": "VEC4"
    },
    {
      "bufferView": 1,
      "byteOffset": 496,
      "componentType": 5126,
      "count": 1229,
      "max": [
        0.99919998645782471,
        0.99930000305175781
      ],
      "min": [
        0.00079999997979030013,
        0.0038999998942017555
      ],
      "type": "VEC2"
    },
    {
      "bufferView": 0,
      "byteOffset": 1248,
      "componentType": 5125,
      "count": 5766,
      "max": [
        1228
      ],
      "min": [
        0
      ],
      "type": "SCALAR"
    },
    {
      "bufferView": 2,
      "byteOffset": 30984,
      "componentType": 5126,
      "count": 62,
      "max": [
        -0.28309899568557739,
        0.35778200626373291,
        0.50265097618103027
      ],
      "min": [
        -0.8795199990272522,
        -0.21576100587844849,
        0.1107110008597374
      ],
      "type": "VEC3"
    },
    {
      "bufferView": 2,
      "byteOffset": 31728,
      "componentType": 5126,
      "count": 62,
      "max": [
        0.99631285667419434,
        0.93910390138626099,
        0.97005921602249146
      ],
      "min": [
        -0.81430917978286743,
        -0.66138094663619995,
        -0.071497365832328796
      ],
      "type": "VEC3"
    },
    {
      "bufferView": 3,
      "byteOffset": 20656,
      "componentType": 5126,
      "count": 62,
      "max": [
        0.99879997968673706,
        0.26146900653839111,
        0.82541799545288086,
        1
      ],
      "min": [
        -0.073084898293018341,
        -0.30300799012184143,
        -0.99823999404907227,
        1
      ],
      "type": "VEC4"
    },
    {
      "bufferView": 1,
      "byteOffset": 10328,
      "componentType": 5126,
      "count": 62,
      "max": [
        0.99570000171661377,
        0.42419999837875366
      ],
      "min": [
        0.49639999866485596,
        0.0060000000521540642
      ],
      "type": "VEC2"
    },
    {
      "bufferView": 0,
      "byteOffset": 24312,
      "componentType": 5125,
      "count": 312,
      "max": [
        61
      ],
      "min": [
        0
      ],
      "type": "SCALAR"
    },
    {
      "bufferView": 2,
      "byteOffset": 32472,
      "componentType": 5126,
      "count": 1232,
      "max": [
        -0.10375200212001801,
        0.69951802492141724,
        0.5327879786491394
      ],
      "min": [
        -1.0723099708557129,
        -0.68574202060699463,
        -0.52916800975799561
      ],
      "type": "VEC3"
    },
    {
      "bufferView": 2,
      "byteOffset": 47256,
      "componentType": 5126,
      "count": 1232,
      "max": [
        0.9988362193107605,
        0.99918526411056519,
        0.9995570182800293
      ],
      "min": [
        -0.99527311325073242,
        -0.99848949909210205,
        -0.98726475238800049
      ],
      "type": "VEC3"
    },
    {
      "bufferView": 3,
      "byteOffset": 21648,
      "componentType": 5126,
      "count": 1232,
      "max": [
        0.99986797571182251,
        0.99763298034667969,
        0.98920702934265137,
        1
      ],
      "min": [
        -0.99958699941635132,
        -0.99597597122192383,
        -0.9917830228805542,
        -1
      ],
      "type": "VEC4"
    },
    {
      "bufferView": 1,
      "byteOffset": 10824,
      "componentType": 5126,
      "count": 1232,
      "max": [
        0.99919998645782471,
        0.99930000305175781
      ],
      "min": [
        0.00079999997979030013,
        0.0038999998942017555
      ],
      "type": "VEC2"
    },
    {
      "bufferView": 0,
      "byteOffset": 25560,
      "componentType": 5125,
      "count": 5766,
      "max": [
        1231
      ],
      "min": [
        0
      ],
      "type": "SCALAR"
    }
  ],
  "asset": {
    "extras": {
      "author": "aboulicious (https://sketchfab.com/aboulicious)",
      "license": "CC-BY-NC-4.0 (http://creativecommons.org/licenses/by-nc/4.0/)",
      "source": "https://sketchfab.com/models/2205f9e49b754887ab04ed70d588745a",
      "title": "Scary Pumpkins"
    },
    "generator": "Sketchfab-3.19.6",
    "version": "2.0"
  },
  "bufferViews": [
    {
      "buffer": 0,
      "byteLength": 48624,
      "byteOffset": 0,
      "name": "floatBufferViews",
      "target": 34963
    },
    {
      "buffer": 0,
      "byteLength": 20680,
      "byteOffset": 48624,
      "byteStride": 8,
      "name": "floatBufferViews",
      "target": 34962
    },
    {
      "buffer": 0,
      "byteLength": 62040,
      "byteOffset": 69304,
      "byteStride": 12,
      "name": "floatBufferViews",
      "target": 34962
    },
    {
      "buffer": 0,
      "byteLength": 41360,
      "byteOffset": 131344,
      "byteStride": 16,
      "name": "floatBufferViews",
      "target": 34962
    }
  ],
  "buffers": [
    {
      "byteLength": 172704,
      "uri": "scene.bin"
    }
  ],
  "images": [
    {
      "uri": "textures/DefaultMaterial_emissive.jpeg"
    },
    {
      "uri": "textures/DefaultMaterial_metallicRoughness.png"
    },
    {
      "uri": "textures/DefaultMaterial_normal.png"
    },
    {
      "uri": "textures/DefaultMaterial_baseColor.jpeg"
    }
  ],
  "materials": [
    {
      "doubleSided": false,
      "emissiveFactor": [
        1,
        1,
        1
      ],
      "emissiveTexture": {
        "index": 0,
        "texCoord": 0
      },
      "name": "DefaultMaterial",
      "normalTexture": {
        "index": 2,
        "scale": 1,
        "texCoord": 0
      },
      "occlusionTexture": {
        "index": 1,
        "strength": 1,
        "texCoord": 0
      },
      "pbrMetallicRoughness": {
        "baseColorFactor": [
          1,
          1,
          1,
          1
        ],
        "baseColorTexture": {
          "index": 3,
          "texCoord": 0
        },
        "metallicFactor": 1,
        "metallicRoughnessTexture": {
          "index": 1,
          "texCoord": 0
        },
        "roughnessFactor": 1
      }
    }
  ],
  "meshes": [
    {
      "name": "defaultMaterial",
      "primitives": [
        {
          "attributes": {
            "NORMAL": 1,
            "POSITION": 0,
            "TANGENT": 2,
            "TEXCOORD_0": 3
          },
          "indices": 4,
          "material": 0,
          "mode": 4
        }
      ]
    },
    {
      "name": "defaultMaterial",
      "primitives": [
        {
          "attributes": {
            "NORMAL": 6,
            "POSITION": 5,
            "TANGENT": 7,
            "TEXCOORD_0": 8
          },
          "indices": 9,
          "material": 0,
          "mode": 4
        }
      ]
    },
    {
      "name": "defaultMaterial",
      "primitives": [
        {
          "attributes": {
            "NORMAL": 11,
            "POSITION": 10,
            "TANGENT": 12,
            "TEXCOORD_0": 13
          },
          "indices": 14,
          "material": 0,
          "mode": 4
        }
      ]
    },
    {
      "name": "defaultMaterial",
      "primitives": [
        {
          "attributes": {
            "NORMAL": 16,
            "POSITION": 15,
            "TANGENT": 17,
            "TEXCOORD_0": 18
          },
          "indices": 19,
          "material": 0,
          "mode": 4
        }
      ]
    }
  ],
  "nodes": [
    {
      "children": [
        1
      ],
      "name": "RootNode (gltf orientation matrix)",
      "rotation": [
        -0.70710678118654746,
        -0,
        -0,
        0.70710678118654757
      ]
    },
    {
      "children": [
        2
      ],
      "name": "RootNode (model correction matrix)"
    },
    {
      "children": [
        3,
        5,
        7,
        9
      ],
      "matrix": [
        1,
        0,
        0,
        0,
        0,
        -4.3711390063094768e-08,
        0.999999999999999,
        0,
        0,
        -0.999999999999999,
        -4.3711390063094768e-08,
        0,
        0,
        0,
        0,
        1
      ],
      "name": "Collada visual scene group"
    },
    {
      "children": [
        4
      ],
      "name": "g"
    },
    {
      "mesh": 0,
      "name": "defaultMaterial"
    },
    {
      "children": [
        6
      ],
      "name": "g"
    },
    {
      "mesh": 1,
      "name": "defaultMaterial"
    },
    {
      "children": [
        8
      ],
      "name": "g"
    },
    {
      "mesh": 2,
      "name": "defaultMaterial"
    },
    {
      "children": [
        10
      ],
      "name": "g"
    },
    {
      "mesh": 3,
      "name": "defaultMaterial"
    }
  ],
  "samplers": [
    {
      "magFilter": 9729,
      "minFilter": 9987,
      "wrapS": 10497,
      "wrapT": 10497
    }
  ],
  "scene": 0,
  "scenes": [
    {
      "name": "OSG_Scene",
      "nodes": [
        0
      ]
    }
  ],
  "textures": [
    {
      "sampler": 0,
      "source": 0
    },
    {
      "sampler": 0,
      "source": 1
    },
    {
      "sampler": 0,
      "source": 2
    },
    {
      "sampler": 0,
      "source": 3
    }
  ]
}

